<svg id="Capa_2" data-name="Capa 2" xmlns="http://www.w3.org/2000/svg" viewBox="0 0 475.76 201.12"><defs><style>.cls-1,.cls-3{fill:#2e703b;}.cls-2,.cls-4{fill:#fff;}.cls-2{stroke:#2e703b;stroke-miterlimit:10;}.cls-3{font-size:29.28px;font-family:Tahoma-Bold, Tahoma;}.cls-3,.cls-4{font-weight:700;}.cls-4{font-size:122.75px;font-family:Arial-BoldMT, Arial;}</style></defs><path class="cls-1" d="M179.71,51.55c-1.17-2.26-2.42-4.47-3.76-6.61a95.14,95.14,0,0,0-161.64,0c-1.34,2.14-2.6,4.35-3.76,6.61a95.28,95.28,0,0,0,.79,88.66c1.22,2.26,2.52,4.47,3.92,6.61a95.15,95.15,0,0,0,159.74,0c1.39-2.14,2.7-4.35,3.91-6.61a95.24,95.24,0,0,0,.8-88.66Zm-10.46-6.61H136.89c-4.49-10.31-10.2-21.24-21-30.93a74.48,74.48,0,0,0-10.31-7.78A89.47,89.47,0,0,1,169.25,44.94ZM81.18,6.7a95.18,95.18,0,0,0-9.7,8.53A103.79,103.79,0,0,0,51.39,44.94H21A89.48,89.48,0,0,1,81.18,6.7ZM22.05,146.82H51.86a103.45,103.45,0,0,0,19.62,28.7,96.84,96.84,0,0,0,8.89,7.9A89.47,89.47,0,0,1,22.05,146.82Zm84.53,37.09a74,74,0,0,0,9.35-7.17c10.41-9.37,16.09-19.91,20.52-29.92h31.76A89.46,89.46,0,0,1,106.58,183.91Zm65.89-43.7H139.26l.68-1.64a88,88,0,0,0,5.6-18.46,83.64,83.64,0,0,0,1.53-16.68h-5.62a110.91,110.91,0,0,1-3.16,21.63,115.43,115.43,0,0,1-5,15.15H103.07v6.61h27.3c-3.09,6.41-8.9,17.35-18.26,25.31-1.9,1.62-6.19,5-10.38,8.18-1.07.81-2.08,1.56-3,2.25V147h4.23l-7.41-7.61L87.32,147h4.23v36.38a92.12,92.12,0,0,1-30.82-31.48q-1.48-2.58-2.73-5.12H87.06v-6.61h-32A109.9,109.9,0,0,1,49.61,122a111.24,111.24,0,0,1-2.38-18.82H41.44A111.35,111.35,0,0,0,47,134.58q1,2.91,2,5.63H17.79a89.08,89.08,0,0,1-12.1-41.5H40.87v4.23l7.61-8.21-7.61-7.41v4.23H5.69a89,89,0,0,1,11.24-40h31.7q-.85,2.23-1.64,4.62a111.35,111.35,0,0,0-5.55,31.4h5.79a115.58,115.58,0,0,1,7.43-36h32.4V44.94H57.51c1-2,2-4.07,3.22-6.12A92.07,92.07,0,0,1,91.55,7.33V45.06H87.32l8.21,7.61,7.41-7.61H98.71V8.19c.94.69,2,1.44,3,2.25,4.19,3.16,8.48,6.56,10.38,8.18C122,27,127.9,38.72,130.85,44.94H103.07v6.61h30.67a116.58,116.58,0,0,1,4.55,14.15,110.83,110.83,0,0,1,3.16,21.62h5.62a83.49,83.49,0,0,0-1.53-16.67,88,88,0,0,0-5.6-18.47l-.26-.63h33.65a89,89,0,0,1,11.24,40h-37.5V87.32l-7.61,7.41,7.61,8.21V98.71h37.5A89.08,89.08,0,0,1,172.47,140.21Z"/><path class="cls-1" d="M110.55,81.93c-1.1-1.44-7.42,3.46-10.36,1.15-2-1.52-.32-4.56-3-8C97,74.9,95.53,73,96,72.44c.19-.25.69-.26.71-.5s-.29-.34-.43-.46c-.29-.24-.47-.8-.15-2.15a5.86,5.86,0,1,0-3.93.17A7.19,7.19,0,0,1,92,73.06c-1.63,5-8.7,5.4-9,8.5-.23,2.47,4,4.7,5.77,5.65,5,2.65,14.08,4.75,19-.19C109.64,85.19,111.18,82.77,110.55,81.93Z"/><path class="cls-1" d="M86.85,80a5.84,5.84,0,0,1-2.7-.33,8.06,8.06,0,0,1-3.59-3.35,16,16,0,0,0-6.28-4.93v-2a5.86,5.86,0,1,0-4.34-.18v2.61a20.86,20.86,0,0,0-2.3,1.4c-3.55,2.48-5.09,5.16-8.4,9.8-1.07,1.5-2.74,3.78-4.93,6.54a4.17,4.17,0,0,0,1.45,2.61,4.21,4.21,0,0,0,2.42.93L64,85.84v25.35a10.16,10.16,0,0,0,5.37,4.46c5.45,1.7,10.78-3.05,12.41-4.5C92.27,101.8,87.33,81.91,86.85,80Z"/><path class="cls-1" d="M101.51,80a5.86,5.86,0,0,0,2.7-.33,8,8,0,0,0,3.58-3.35,16.2,16.2,0,0,1,6.28-4.93v-2a5.86,5.86,0,1,1,4.35-.18v2.61a20.93,20.93,0,0,1,2.29,1.4c3.56,2.48,5.1,5.16,8.41,9.8,1.07,1.5,2.74,3.78,4.93,6.54a4.25,4.25,0,0,1-1.46,2.61,4.17,4.17,0,0,1-2.42.93l-5.8-7.29v25.35a10.12,10.12,0,0,1-5.37,4.46c-5.44,1.7-10.78-3.05-12.4-4.5C96.09,101.8,101,81.91,101.51,80Z"/><path class="cls-2" d="M98.06,81.76v1.63l-6.89,5.35q1.89,19.17,3.77,38.34a12.67,12.67,0,0,0,3.4.33,13.61,13.61,0,0,0,7.54-2.79V109.87H115l-10.56-17,0-3.35,10.13,13.12a2.2,2.2,0,0,0,1.89.5c.92-.34,1.52-1.86.81-3.44a37.44,37.44,0,0,0-15.7-16.51V81.82h-1.21A10.87,10.87,0,0,1,98.06,81.76Z"/><circle class="cls-2" cx="100.62" cy="75.16" r="6.17"/><path class="cls-2" d="M85,82v1.52a25.72,25.72,0,0,0-4.22,3.29C78,89.52,77,91.7,73.75,96.17c-.87,1.17-2.23,3-4.07,5.09a2.54,2.54,0,0,0,1.18,2.54,2.51,2.51,0,0,0,2,.19l6.64-8.63v27a8.84,8.84,0,0,0,2.86,4c4.12,3.19,9.54,1.07,9.86.94-1.84-5.15-5.87-19,1-26.82.35-.4.38-1.09.8-1.46l1.43-.82h.83v-8a11.48,11.48,0,0,0-7.22-6.77V81.51l-2,.22Z"/><circle class="cls-2" cx="87.22" cy="75.16" r="6.17"/><path class="cls-1" d="M99.6,106.44a29.26,29.26,0,0,0-5.18-4.19v-1a4.17,4.17,0,1,0-3.14,0v1.1a34.32,34.32,0,0,0-4,3.37A35.06,35.06,0,0,0,81,114.26a1.92,1.92,0,0,0,.78,2.29,2,2,0,0,0,1.8-.06L87,111.81v17.24a6.19,6.19,0,0,0,3.85,3.35,6.07,6.07,0,0,0,5.12-.9,6,6,0,0,0,2.29-3.78V111.59l4.16,5a2.87,2.87,0,0,0,1.46-.58,3,3,0,0,0,1.08-2A29.13,29.13,0,0,0,99.6,106.44Z"/><text class="cls-3" transform="translate(188.48 188.85)">LATINOAMERICA</text><path class="cls-1" d="M475.76,165.37H176.92c5.35-10.55,23.16-38.83,23.49-66.23.35-29.17-8.69-43.55-14.09-54.2H475.76Z"/><text class="cls-4" transform="translate(207.54 150.25) scale(0.8 1)">ICEVI</text></svg>